<svg xmlns="http://www.w3.org/2000/svg" width="800" height="600">
<defs>
  <linearGradient id="scene" x1="0%" y1="0%" x2="100%" y2="100%"><stop offset="0%" stop-color="#1a1a2e"/><stop offset="100%" stop-color="#0f3460"/></linearGradient>
  <linearGradient id="imgG" x1="0%" y1="0%" x2="100%" y2="100%"><stop offset="0%" stop-color="#667eea"/><stop offset="100%" stop-color="#764ba2"/></linearGradient>
  <filter id="sh"><feDropShadow dx="20" dy="28" stdDeviation="22" flood-color="rgba(0,0,0,0.55)"/></filter>
</defs>
<rect width="800" height="600" fill="url(#scene)"/>
<text x="400" y="46" font-family="system-ui" font-size="16" font-weight="700" fill="rgba(255,255,255,0.45)" text-anchor="middle">CSS 3D Transform on Hover</text>
<rect x="460" y="90" width="240" height="310" rx="20" fill="rgba(255,255,255,0.04)" stroke="rgba(255,255,255,0.07)" stroke-width="1"/>
<rect x="480" y="108" width="200" height="130" rx="12" fill="url(#imgG)" opacity="0.55"/>
<text x="580" y="280" font-family="system-ui" font-size="16" font-weight="600" fill="rgba(255,255,255,0.35)" text-anchor="middle">Default</text>
<text x="580" y="302" font-family="system-ui" font-size="13" fill="rgba(255,255,255,0.2)" text-anchor="middle">transform: none</text>
<text x="418" y="250" font-family="system-ui" font-size="32" fill="rgba(255,255,255,0.15)" text-anchor="middle">←</text>
<g filter="url(#sh)" transform="matrix(0.965,0,-0.09,0.985,20,12)">
  <rect x="66" y="82" width="272" height="338" rx="20" fill="rgba(255,255,255,0.07)" stroke="rgba(255,255,255,0.22)" stroke-width="1.5"/>
  <rect x="84" y="100" width="236" height="148" rx="12" fill="url(#imgG)"/>
  <circle cx="130" cy="174" r="32" fill="rgba(255,255,255,0.15)"/>
  <text x="200" y="170" font-family="system-ui" font-size="18" fill="rgba(255,255,255,0.5)">◆◆</text>
  <text x="202" y="185" font-family="system-ui" font-size="11" fill="rgba(255,255,255,0.35)">Component</text>
  <text x="202" y="270" font-family="system-ui" font-size="18" font-weight="700" fill="white">3D Hover Card</text>
  <text x="202" y="294" font-family="system-ui" font-size="13" fill="rgba(255,255,255,0.5)">perspective: 1000px</text>
  <rect x="88" y="312" width="90" height="34" rx="9" fill="#667eea"/>
  <text x="133" y="334" font-family="system-ui" font-size="13" fill="white" text-anchor="middle" font-weight="600">View</text>
  <rect x="192" y="312" width="90" height="34" rx="9" fill="rgba(255,255,255,0.1)" stroke="rgba(255,255,255,0.2)" stroke-width="1"/>
  <text x="237" y="334" font-family="system-ui" font-size="13" fill="rgba(255,255,255,0.7)" text-anchor="middle">Save</text>
</g>
<rect x="60" y="468" width="680" height="100" rx="12" fill="rgba(255,255,255,0.03)" stroke="rgba(255,255,255,0.06)" stroke-width="1"/>
<text x="80" y="494" font-family="monospace" font-size="13" fill="rgba(102,126,234,0.9)">.card:hover {</text>
<text x="96" y="514" font-family="monospace" font-size="13" fill="rgba(255,255,255,0.5)">transform: perspective(1000px) rotateY(-12deg) rotateX(5deg);</text>
<text x="96" y="534" font-family="monospace" font-size="13" fill="rgba(255,255,255,0.5)">box-shadow: 20px 20px 60px rgba(0,0,0,0.5);</text>
<text x="80" y="554" font-family="monospace" font-size="13" fill="rgba(102,126,234,0.9)">}</text>
</svg>