<svg xmlns="http://www.w3.org/2000/svg" width="800" height="600">
<defs>
  <linearGradient id="cg1" x1="0%" y1="0%" x2="100%" y2="100%"><stop offset="0%" stop-color="#667eea"/><stop offset="100%" stop-color="#764ba2"/></linearGradient>
  <linearGradient id="cg2" x1="0%" y1="0%" x2="100%" y2="100%"><stop offset="0%" stop-color="#f093fb"/><stop offset="100%" stop-color="#f5576c"/></linearGradient>
  <linearGradient id="cg3" x1="0%" y1="0%" x2="100%" y2="100%"><stop offset="0%" stop-color="#4facfe"/><stop offset="100%" stop-color="#00f2fe"/></linearGradient>
  <linearGradient id="cg4" x1="0%" y1="0%" x2="100%" y2="100%"><stop offset="0%" stop-color="#10b981"/><stop offset="100%" stop-color="#059669"/></linearGradient>
</defs>
<rect width="800" height="600" fill="#0f172a"/>
<text x="28" y="33" font-family="system-ui" font-size="15" font-weight="700" fill="rgba(255,255,255,0.65)">CSS Grid Dashboard Layout</text>
<rect x="28" y="46" width="160" height="80" rx="12" fill="url(#cg1)"/>
<text x="46" y="70" font-family="system-ui" font-size="11" fill="rgba(255,255,255,0.7)">Users</text>
<text x="46" y="100" font-family="system-ui" font-size="24" font-weight="800" fill="white">2,847</text>
<text x="46" y="118" font-family="system-ui" font-size="11" fill="#86efac">↑ 12.5%</text>
<rect x="200" y="46" width="160" height="80" rx="12" fill="url(#cg2)"/>
<text x="218" y="70" font-family="system-ui" font-size="11" fill="rgba(255,255,255,0.7)">Revenue</text>
<text x="218" y="100" font-family="system-ui" font-size="24" font-weight="800" fill="white">$48K</text>
<text x="218" y="118" font-family="system-ui" font-size="11" fill="#fde68a">↑ 8.2%</text>
<rect x="372" y="46" width="160" height="80" rx="12" fill="url(#cg3)"/>
<text x="390" y="70" font-family="system-ui" font-size="11" fill="rgba(255,255,255,0.7)">Orders</text>
<text x="390" y="100" font-family="system-ui" font-size="24" font-weight="800" fill="white">1,024</text>
<text x="390" y="118" font-family="system-ui" font-size="11" fill="#fde68a">↓ 3.1%</text>
<rect x="544" y="46" width="228" height="80" rx="12" fill="url(#cg4)"/>
<text x="562" y="70" font-family="system-ui" font-size="11" fill="rgba(255,255,255,0.7)">Growth</text>
<text x="562" y="100" font-family="system-ui" font-size="24" font-weight="800" fill="white">+23%</text>
<text x="562" y="118" font-family="system-ui" font-size="11" fill="#86efac">↑ 5.7%</text>
<rect x="28" y="142" width="492" height="192" rx="12" fill="rgba(255,255,255,0.03)" stroke="rgba(255,255,255,0.05)" stroke-width="1"/>
<text x="48" y="170" font-family="system-ui" font-size="13" font-weight="600" fill="rgba(255,255,255,0.75)">Weekly Overview</text>
<rect x="56"  y="268" width="34" height="52" rx="5" fill="url(#cg1)" opacity="0.8"/>
<rect x="102" y="248" width="34" height="72" rx="5" fill="url(#cg1)"/>
<rect x="148" y="280" width="34" height="40" rx="5" fill="url(#cg1)" opacity="0.7"/>
<rect x="194" y="240" width="34" height="80" rx="5" fill="url(#cg1)"/>
<rect x="240" y="260" width="34" height="60" rx="5" fill="url(#cg2)"/>
<rect x="286" y="256" width="34" height="64" rx="5" fill="url(#cg1)" opacity="0.75"/>
<rect x="332" y="244" width="34" height="76" rx="5" fill="url(#cg1)" opacity="0.9"/>
<rect x="544" y="142" width="228" height="192" rx="12" fill="rgba(255,255,255,0.03)" stroke="rgba(255,255,255,0.05)" stroke-width="1"/>
<text x="564" y="170" font-family="system-ui" font-size="13" font-weight="600" fill="rgba(255,255,255,0.75)">Activity</text>
<circle cx="574" cy="206" r="11" fill="url(#cg1)"/>
<text x="594" y="210" font-family="system-ui" font-size="11" fill="rgba(255,255,255,0.5)">User signed up</text>
<circle cx="574" cy="238" r="11" fill="url(#cg2)"/>
<text x="594" y="242" font-family="system-ui" font-size="11" fill="rgba(255,255,255,0.5)">Payment received</text>
<circle cx="574" cy="270" r="11" fill="url(#cg3)"/>
<text x="594" y="274" font-family="system-ui" font-size="11" fill="rgba(255,255,255,0.5)">Order placed</text>
<circle cx="574" cy="302" r="11" fill="url(#cg4)"/>
<text x="594" y="306" font-family="system-ui" font-size="11" fill="rgba(255,255,255,0.5)">New comment</text>
<rect x="28" y="350" width="744" height="130" rx="12" fill="rgba(255,255,255,0.025)" stroke="rgba(255,255,255,0.05)" stroke-width="1"/>
<text x="50" y="380" font-family="monospace" font-size="13" fill="rgba(99,102,241,0.9)">.dashboard {</text>
<text x="68" y="402" font-family="monospace" font-size="12" fill="rgba(255,255,255,0.5)">display: grid;  grid-template-columns: repeat(4, 1fr);  gap: 16px;</text>
<text x="50" y="424" font-family="monospace" font-size="13" fill="rgba(99,102,241,0.9)">}</text>
<text x="50" y="450" font-family="monospace" font-size="13" fill="rgba(99,102,241,0.9)">.chart-area {</text>
<text x="68" y="470" font-family="monospace" font-size="12" fill="rgba(255,255,255,0.5)">grid-column: 1 / 4;  grid-row: 2 / 3;</text>
<text x="50" y="490" font-family="monospace" font-size="13" fill="rgba(99,102,241,0.9)">}</text>
<rect x="28" y="498" width="744" height="72" rx="10" fill="rgba(255,255,255,0.02)" stroke="rgba(255,255,255,0.04)" stroke-width="1"/>
<text x="50" y="524" font-family="monospace" font-size="13" fill="rgba(99,102,241,0.9)">.sidebar {</text>
<text x="68" y="544" font-family="monospace" font-size="12" fill="rgba(255,255,255,0.5)">grid-column: 4 / 5;  grid-row: 2 / 4;</text>
<text x="50" y="563" font-family="monospace" font-size="13" fill="rgba(99,102,241,0.9)">}</text>
</svg>