<svg xmlns="http://www.w3.org/2000/svg" width="800" height="600">
  <rect width="800" height="600" fill="#0f172a"/>
  <text x="40" y="44" font-family="system-ui" font-size="18" font-weight="700" fill="white">Fetch API + Async/Await</text>
  <text x="40" y="64" font-family="system-ui" font-size="12" fill="rgba(255,255,255,0.4)">JavaScript · HTTP requests</text>
  <!-- Flow diagram -->
  <!-- Browser node -->
  <rect x="40" y="88" width="130" height="48" rx="10" fill="#1e40af"/>
  <text x="105" y="118" font-family="system-ui" font-size="13" font-weight="600" fill="white" text-anchor="middle">🖥 Browser</text>
  <!-- Arrow -->
  <line x1="170" y1="112" x2="230" y2="112" stroke="#60a5fa" stroke-width="2"/>
  <polygon points="228,107 238,112 228,117" fill="#60a5fa"/>
  <text x="200" y="106" font-family="system-ui" font-size="10" fill="#60a5fa" text-anchor="middle">fetch()</text>
  <!-- Server node -->
  <rect x="236" y="88" width="130" height="48" rx="10" fill="#065f46"/>
  <text x="301" y="118" font-family="system-ui" font-size="13" font-weight="600" fill="white" text-anchor="middle">🌐 API Server</text>
  <!-- Arrow back -->
  <line x1="366" y1="122" x2="426" y2="122" stroke="#34d399" stroke-width="2"/>
  <polygon points="424,117 434,122 424,127" fill="#34d399"/>
  <text x="396" y="116" font-family="system-ui" font-size="10" fill="#34d399" text-anchor="middle">JSON</text>
  <!-- Data node -->
  <rect x="432" y="88" width="130" height="48" rx="10" fill="#4c1d95"/>
  <text x="497" y="118" font-family="system-ui" font-size="13" font-weight="600" fill="white" text-anchor="middle">📦 Data</text>
  <!-- Arrow to state -->
  <line x1="562" y1="112" x2="622" y2="112" stroke="#a78bfa" stroke-width="2"/>
  <polygon points="620,107 630,112 620,117" fill="#a78bfa"/>
  <!-- State node -->
  <rect x="628" y="88" width="130" height="48" rx="10" fill="#701a75"/>
  <text x="693" y="118" font-family="system-ui" font-size="13" font-weight="600" fill="white" text-anchor="middle">⚛ State</text>
  <!-- Status indicators -->
  <rect x="40" y="158" width="90" height="28" rx="8" fill="rgba(245,158,11,0.15)" stroke="rgba(245,158,11,0.4)" stroke-width="1"/>
  <text x="85" y="177" font-family="system-ui" font-size="11" fill="#fbbf24" text-anchor="middle">⏳ loading</text>
  <rect x="142" y="158" width="80" height="28" rx="8" fill="rgba(239,68,68,0.15)" stroke="rgba(239,68,68,0.4)" stroke-width="1"/>
  <text x="182" y="177" font-family="system-ui" font-size="11" fill="#f87171" text-anchor="middle">✕ error</text>
  <rect x="234" y="158" width="80" height="28" rx="8" fill="rgba(52,211,153,0.15)" stroke="rgba(52,211,153,0.4)" stroke-width="1"/>
  <text x="274" y="177" font-family="system-ui" font-size="11" fill="#34d399" text-anchor="middle">✓ success</text>
  <!-- Main code panel -->
  <rect x="40" y="204" width="480" height="370" rx="12" fill="#111827" stroke="rgba(255,255,255,0.06)" stroke-width="1"/>
  <rect x="40" y="204" width="480" height="30" rx="12" fill="#1e293b"/>
  <rect x="40" y="219" width="480" height="15" fill="#1e293b"/>
  <text x="58" y="224" font-family="monospace" font-size="11" fill="rgba(255,255,255,0.5)">fetchData.js</text>
  <text x="58" y="252" font-family="monospace" font-size="12" fill="#6ee7b7">// Fetch con async/await y manejo de errores</text>
  <text x="58" y="272" font-family="monospace" font-size="12" fill="#60a5fa">async function</text>
  <text x="160" y="272" font-family="monospace" font-size="12" fill="#fbbf24"> fetchUsers</text>
  <text x="220" y="272" font-family="monospace" font-size="12" fill="white">() {</text>
  <text x="58" y="292" font-family="monospace" font-size="12" fill="#60a5fa">  const</text>
  <text x="94" y="292" font-family="monospace" font-size="12" fill="white"> [data, setData] =</text>
  <text x="58" y="310" font-family="monospace" font-size="12" fill="#fbbf24">    useState</text>
  <text x="112" y="310" font-family="monospace" font-size="12" fill="white">(null);</text>
  <text x="58" y="330" font-family="monospace" font-size="12" fill="#60a5fa">  const</text>
  <text x="94" y="330" font-family="monospace" font-size="12" fill="white"> [loading, setLoading] =</text>
  <text x="58" y="348" font-family="monospace" font-size="12" fill="#fbbf24">    useState</text>
  <text x="112" y="348" font-family="monospace" font-size="12" fill="white">(</text>
  <text x="118" y="348" font-family="monospace" font-size="12" fill="#f59e0b">true</text>
  <text x="136" y="348" font-family="monospace" font-size="12" fill="white">);</text>
  <text x="58" y="370" font-family="monospace" font-size="12" fill="#60a5fa">  try</text>
  <text x="82" y="370" font-family="monospace" font-size="12" fill="white"> {</text>
  <text x="58" y="388" font-family="monospace" font-size="12" fill="#60a5fa">    const</text>
  <text x="94" y="388" font-family="monospace" font-size="12" fill="white"> res = </text>
  <text x="124" y="388" font-family="monospace" font-size="12" fill="#60a5fa">await</text>
  <text x="156" y="388" font-family="monospace" font-size="12" fill="#fbbf24"> fetch</text>
  <text x="182" y="388" font-family="monospace" font-size="12" fill="#f59e0b">('/api/users');</text>
  <text x="58" y="408" font-family="monospace" font-size="12" fill="#60a5fa">    if</text>
  <text x="76" y="408" font-family="monospace" font-size="12" fill="white"> (!res.ok)</text>
  <text x="58" y="426" font-family="monospace" font-size="12" fill="#60a5fa">      throw new</text>
  <text x="128" y="426" font-family="monospace" font-size="12" fill="#fbbf24"> Error</text>
  <text x="160" y="426" font-family="monospace" font-size="12" fill="#f59e0b">('Network error');</text>
  <text x="58" y="446" font-family="monospace" font-size="12" fill="#60a5fa">    const</text>
  <text x="94" y="446" font-family="monospace" font-size="12" fill="white"> json = </text>
  <text x="124" y="446" font-family="monospace" font-size="12" fill="#60a5fa">await</text>
  <text x="156" y="446" font-family="monospace" font-size="12" fill="white"> res.</text>
  <text x="172" y="446" font-family="monospace" font-size="12" fill="#fbbf24">json</text>
  <text x="196" y="446" font-family="monospace" font-size="12" fill="white">();</text>
  <text x="58" y="464" font-family="monospace" font-size="12" fill="white">    setData(json);</text>
  <text x="58" y="484" font-family="monospace" font-size="12" fill="#60a5fa">  } catch</text>
  <text x="110" y="484" font-family="monospace" font-size="12" fill="white"> (err) {</text>
  <text x="58" y="502" font-family="monospace" font-size="12" fill="white">    console.</text>
  <text x="118" y="502" font-family="monospace" font-size="12" fill="#fbbf24">error</text>
  <text x="146" y="502" font-family="monospace" font-size="12" fill="white">(err);</text>
  <text x="58" y="520" font-family="monospace" font-size="12" fill="#60a5fa">  } finally</text>
  <text x="113" y="520" font-family="monospace" font-size="12" fill="white"> {</text>
  <text x="58" y="538" font-family="monospace" font-size="12" fill="white">    setLoading(</text>
  <text x="132" y="538" font-family="monospace" font-size="12" fill="#f59e0b">false</text>
  <text x="160" y="538" font-family="monospace" font-size="12" fill="white">);</text>
  <text x="58" y="556" font-family="monospace" font-size="12" fill="white">  }</text>
  <text x="58" y="572" font-family="monospace" font-size="12" fill="white">}</text>
  <!-- Tip panel -->
  <rect x="534" y="204" width="256" height="370" rx="12" fill="#1e293b" stroke="rgba(255,255,255,0.06)" stroke-width="1"/>
  <text x="550" y="234" font-family="system-ui" font-size="13" font-weight="700" fill="white">Métodos HTTP</text>
  <rect x="550" y="248" width="220" height="32" rx="8" fill="rgba(52,211,153,0.1)" stroke="rgba(52,211,153,0.2)" stroke-width="1"/>
  <text x="560" y="269" font-family="monospace" font-size="12" fill="#34d399">GET     fetch(url)</text>
  <rect x="550" y="288" width="220" height="32" rx="8" fill="rgba(96,165,250,0.1)" stroke="rgba(96,165,250,0.2)" stroke-width="1"/>
  <text x="560" y="309" font-family="monospace" font-size="12" fill="#60a5fa">POST    method: 'POST'</text>
  <rect x="550" y="328" width="220" height="32" rx="8" fill="rgba(251,191,36,0.1)" stroke="rgba(251,191,36,0.2)" stroke-width="1"/>
  <text x="560" y="349" font-family="monospace" font-size="12" fill="#fbbf24">PUT     method: 'PUT'</text>
  <rect x="550" y="368" width="220" height="32" rx="8" fill="rgba(248,113,113,0.1)" stroke="rgba(248,113,113,0.2)" stroke-width="1"/>
  <text x="560" y="389" font-family="monospace" font-size="12" fill="#f87171">DELETE  method: 'DELETE'</text>
  <text x="550" y="424" font-family="system-ui" font-size="13" font-weight="700" fill="white">Headers</text>
  <text x="550" y="444" font-family="monospace" font-size="11" fill="rgba(255,255,255,0.5)">headers: {</text>
  <text x="550" y="462" font-family="monospace" font-size="11" fill="#f59e0b">  'Content-Type':</text>
  <text x="550" y="480" font-family="monospace" font-size="11" fill="#f59e0b">    'application/json',</text>
  <text x="550" y="498" font-family="monospace" font-size="11" fill="white">  Authorization:</text>
  <text x="550" y="516" font-family="monospace" font-size="11" fill="#f59e0b">    `Bearer ${token}`,</text>
  <text x="550" y="534" font-family="monospace" font-size="11" fill="rgba(255,255,255,0.5)">}</text>
</svg>