<svg xmlns="http://www.w3.org/2000/svg" width="800" height="600">
<defs>
  <linearGradient id="sg" x1="0%" y1="0%" x2="100%" y2="100%"><stop offset="0%" stop-color="#667eea"/><stop offset="100%" stop-color="#764ba2"/></linearGradient>
</defs>
<rect width="800" height="600" fill="#0f172a"/>
<text x="400" y="44" font-family="system-ui" font-size="19" font-weight="700" fill="rgba(255,255,255,0.65)" text-anchor="middle">CSS Loading Animations</text>
<text x="120" y="112" font-family="system-ui" font-size="12" fill="rgba(255,255,255,0.35)" text-anchor="middle">Ring</text>
<circle cx="120" cy="196" r="52" fill="none" stroke="rgba(102,126,234,0.15)" stroke-width="10"/>
<path d="M 120 144 A 52 52 0 0 1 172 196" fill="none" stroke="url(#sg)" stroke-width="10" stroke-linecap="round"/>
<text x="300" y="112" font-family="system-ui" font-size="12" fill="rgba(255,255,255,0.35)" text-anchor="middle">Dots</text>
<circle cx="260" cy="196" r="15" fill="#f093fb"/>
<circle cx="300" cy="196" r="15" fill="#f093fb" opacity="0.55"/>
<circle cx="340" cy="196" r="15" fill="#f093fb" opacity="0.2"/>
<text x="490" y="112" font-family="system-ui" font-size="12" fill="rgba(255,255,255,0.35)" text-anchor="middle">Pulse</text>
<circle cx="490" cy="196" r="58" fill="#4facfe" opacity="0.09"/>
<circle cx="490" cy="196" r="40" fill="#4facfe" opacity="0.18"/>
<circle cx="490" cy="196" r="24" fill="#4facfe" opacity="0.85"/>
<text x="668" y="112" font-family="system-ui" font-size="12" fill="rgba(255,255,255,0.35)" text-anchor="middle">Bars</text>
<rect x="638" y="162" width="10" height="68" rx="5" fill="#10b981"/>
<rect x="654" y="172" width="10" height="48" rx="5" fill="#10b981" opacity="0.75"/>
<rect x="670" y="180" width="10" height="32" rx="5" fill="#10b981" opacity="0.5"/>
<rect x="686" y="186" width="10" height="20" rx="5" fill="#10b981" opacity="0.3"/>
<rect x="702" y="180" width="10" height="32" rx="5" fill="#10b981" opacity="0.18"/>
<line x1="48" y1="288" x2="752" y2="288" stroke="rgba(255,255,255,0.05)" stroke-width="1"/>
<rect x="48" y="306" width="704" height="234" rx="14" fill="rgba(255,255,255,0.025)" stroke="rgba(255,255,255,0.05)" stroke-width="1"/>
<text x="72" y="338" font-family="monospace" font-size="14" fill="rgba(102,126,234,0.9)">@keyframes spin {</text>
<text x="90" y="362" font-family="monospace" font-size="13" fill="rgba(255,255,255,0.4)">from { transform: rotate(0deg); }</text>
<text x="90" y="385" font-family="monospace" font-size="13" fill="rgba(255,255,255,0.4)">to   { transform: rotate(360deg); }</text>
<text x="72" y="408" font-family="monospace" font-size="14" fill="rgba(102,126,234,0.9)">}</text>
<text x="72" y="438" font-family="monospace" font-size="14" fill="rgba(102,126,234,0.9)">@keyframes pulse {</text>
<text x="90" y="462" font-family="monospace" font-size="13" fill="rgba(255,255,255,0.4)">0%, 100% { transform: scale(1); opacity: 1; }</text>
<text x="90" y="485" font-family="monospace" font-size="13" fill="rgba(255,255,255,0.4)">50%      { transform: scale(1.4); opacity: 0.5; }</text>
<text x="72" y="508" font-family="monospace" font-size="14" fill="rgba(102,126,234,0.9)">}</text>
<text x="72" y="530" font-family="monospace" font-size="13" fill="rgba(255,255,255,0.4)">.spinner { animation: spin 1s linear infinite; }</text>
</svg>