<svg xmlns="http://www.w3.org/2000/svg" width="800" height="600">
  <defs>
    <linearGradient id="mgBg" x1="0%" y1="0%" x2="100%" y2="100%">
      <stop offset="0%" stop-color="#1e1b4b"/>
      <stop offset="100%" stop-color="#0f172a"/>
    </linearGradient>
  </defs>
  <rect width="800" height="600" fill="url(#mgBg)"/>
  <!-- Overlay backdrop -->
  <rect width="800" height="600" fill="rgba(0,0,0,0.55)"/>
  <!-- Modal box -->
  <rect x="180" y="80" width="440" height="320" rx="16" fill="#1e293b" stroke="rgba(255,255,255,0.1)" stroke-width="1"/>
  <!-- Header bar -->
  <rect x="180" y="80" width="440" height="56" rx="16" fill="#334155"/>
  <rect x="180" y="112" width="440" height="24" fill="#334155"/>
  <text x="210" y="114" font-family="system-ui" font-size="16" font-weight="700" fill="white">Confirmar acción</text>
  <circle cx="595" cy="108" r="12" fill="rgba(255,255,255,0.1)"/>
  <text x="589" y="113" font-family="system-ui" font-size="14" fill="rgba(255,255,255,0.7)">✕</text>
  <!-- Body text lines -->
  <rect x="210" y="150" width="300" height="10" rx="4" fill="rgba(255,255,255,0.15)"/>
  <rect x="210" y="172" width="360" height="10" rx="4" fill="rgba(255,255,255,0.1)"/>
  <rect x="210" y="194" width="240" height="10" rx="4" fill="rgba(255,255,255,0.1)"/>
  <!-- Warning icon + box -->
  <rect x="210" y="220" width="380" height="60" rx="10" fill="rgba(245,158,11,0.12)" stroke="rgba(245,158,11,0.3)" stroke-width="1"/>
  <text x="230" y="256" font-family="system-ui" font-size="13" fill="#fbbf24">⚠  Esta acción no se puede deshacer.</text>
  <!-- Footer btns -->
  <rect x="210" y="300" width="130" height="40" rx="8" fill="rgba(255,255,255,0.06)" stroke="rgba(255,255,255,0.15)" stroke-width="1"/>
  <text x="265" y="325" font-family="system-ui" font-size="13" text-anchor="middle" fill="rgba(255,255,255,0.7)">Cancelar</text>
  <rect x="360" y="300" width="230" height="40" rx="8" fill="#ef4444"/>
  <text x="475" y="325" font-family="system-ui" font-size="13" font-weight="600" text-anchor="middle" fill="white">Sí, eliminar</text>
  <!-- Code snippet below -->
  <rect x="28" y="430" width="744" height="150" rx="12" fill="rgba(255,255,255,0.025)" stroke="rgba(255,255,255,0.05)" stroke-width="1"/>
  <text x="50" y="458" font-family="monospace" font-size="12" fill="#60a5fa">// HTML</text>
  <text x="50" y="476" font-family="monospace" font-size="11" fill="rgba(255,255,255,0.55)">&lt;dialog id="myModal" class="modal"&gt;</text>
  <text x="62" y="492" font-family="monospace" font-size="11" fill="rgba(255,255,255,0.45)">  &lt;div class="modal-header"&gt;...&lt;/div&gt;</text>
  <text x="50" y="508" font-family="monospace" font-size="11" fill="rgba(255,255,255,0.55)">&lt;/dialog&gt;</text>
  <text x="50" y="530" font-family="monospace" font-size="12" fill="#a78bfa">// JS  — document.getElementById('myModal').showModal();</text>
  <text x="50" y="548" font-family="monospace" font-size="12" fill="#34d399">// CSS — .modal { border-radius: 16px; padding: 0; }</text>
  <text x="50" y="566" font-family="monospace" font-size="12" fill="#34d399">         .modal::backdrop { background: rgba(0,0,0,0.5); }</text>
</svg>