<svg xmlns="http://www.w3.org/2000/svg" width="800" height="600">
<defs>
  <linearGradient id="nb" x1="0%" y1="0%" x2="100%" y2="0%"><stop offset="0%" stop-color="#0f172a"/><stop offset="100%" stop-color="#1e293b"/></linearGradient>
  <linearGradient id="lg" x1="0%" y1="0%" x2="100%" y2="100%"><stop offset="0%" stop-color="#667eea"/><stop offset="100%" stop-color="#764ba2"/></linearGradient>
</defs>
<rect width="800" height="600" fill="#f1f5f9"/>
<text x="50" y="42" font-family="system-ui" font-size="13" font-weight="700" fill="#64748b">DESKTOP — sticky navbar</text>
<rect x="32" y="56" width="736" height="60" rx="12" fill="url(#nb)"/>
<rect x="54" y="72" width="30" height="30" rx="7" fill="url(#lg)"/>
<text x="69" y="93" font-family="system-ui" font-size="17" font-weight="900" fill="white" text-anchor="middle">D</text>
<text x="98" y="91" font-family="system-ui" font-size="16" font-weight="700" fill="white">DevSite</text>
<text x="248" y="91" font-family="system-ui" font-size="14" font-weight="700" fill="white">Home</text>
<line x1="248" y1="109" x2="282" y2="109" stroke="#667eea" stroke-width="2.5" stroke-linecap="round"/>
<text x="316" y="91" font-family="system-ui" font-size="14" fill="rgba(255,255,255,0.5)">Projects</text>
<text x="398" y="91" font-family="system-ui" font-size="14" fill="rgba(255,255,255,0.5)">Blog</text>
<text x="466" y="91" font-family="system-ui" font-size="14" fill="rgba(255,255,255,0.5)">About</text>
<rect x="626" y="72" width="118" height="30" rx="8" fill="url(#lg)"/>
<text x="685" y="92" font-family="system-ui" font-size="13" font-weight="600" fill="white" text-anchor="middle">Sign Up →</text>
<text x="50" y="172" font-family="system-ui" font-size="13" font-weight="700" fill="#64748b">MOBILE — collapsed</text>
<rect x="32" y="186" width="736" height="54" rx="12" fill="url(#nb)"/>
<rect x="54" y="200" width="26" height="26" rx="6" fill="url(#lg)"/>
<text x="67" y="219" font-family="system-ui" font-size="15" font-weight="900" fill="white" text-anchor="middle">D</text>
<text x="92" y="220" font-family="system-ui" font-size="15" font-weight="700" fill="white">DevSite</text>
<line x1="698" y1="205" x2="724" y2="205" stroke="white" stroke-width="2.5" stroke-linecap="round"/>
<line x1="698" y1="213" x2="724" y2="213" stroke="white" stroke-width="2.5" stroke-linecap="round"/>
<line x1="698" y1="221" x2="724" y2="221" stroke="white" stroke-width="2.5" stroke-linecap="round"/>
<text x="50" y="292" font-family="system-ui" font-size="13" font-weight="700" fill="#64748b">MOBILE — open dropdown</text>
<rect x="32" y="306" width="736" height="194" rx="12" fill="url(#nb)"/>
<rect x="54" y="318" width="26" height="26" rx="6" fill="url(#lg)"/>
<text x="94" y="338" font-family="system-ui" font-size="15" font-weight="700" fill="white">DevSite</text>
<line x1="32" y1="352" x2="768" y2="352" stroke="rgba(255,255,255,0.07)" stroke-width="1"/>
<text x="64" y="380" font-family="system-ui" font-size="14" fill="rgba(255,255,255,0.85)">🏠  Home</text>
<text x="64" y="406" font-family="system-ui" font-size="14" fill="rgba(255,255,255,0.5)">💼  Projects</text>
<text x="64" y="432" font-family="system-ui" font-size="14" fill="rgba(255,255,255,0.5)">📝  Blog</text>
<text x="64" y="458" font-family="system-ui" font-size="14" fill="rgba(255,255,255,0.5)">👤  About</text>
<rect x="634" y="434" width="110" height="34" rx="8" fill="url(#lg)"/>
<text x="689" y="456" font-family="system-ui" font-size="13" font-weight="600" fill="white" text-anchor="middle">Sign Up</text>
<rect x="32" y="520" width="736" height="52" rx="10" fill="rgba(0,0,0,0.055)" stroke="#e2e8f0" stroke-width="1"/>
<text x="400" y="544" font-family="monospace" font-size="12" fill="#64748b" text-anchor="middle">position: sticky; top: 0; backdrop-filter: blur(8px); z-index: 100;</text>
<text x="400" y="561" font-family="monospace" font-size="12" fill="#94a3b8" text-anchor="middle">@media (max-width: 768px) { .nav-links { display: none; } .hamburger { display: flex; } }</text>
</svg>