<svg xmlns="http://www.w3.org/2000/svg" width="800" height="600">
  <rect width="800" height="600" fill="#0f172a"/>
  <text x="40" y="44" font-family="system-ui" font-size="18" font-weight="700" fill="white">Toast Notifications</text>
  <text x="40" y="64" font-family="system-ui" font-size="12" fill="rgba(255,255,255,0.4)">HTML + CSS + JavaScript</text>
  <!-- Success toast -->
  <rect x="40" y="82" width="400" height="62" rx="12" fill="#052e16" stroke="#16a34a" stroke-width="1.5"/>
  <rect x="40" y="82" width="6" height="62" rx="3,0,0,3" fill="#16a34a"/>
  <text x="68" y="107" font-family="system-ui" font-size="13" font-weight="700" fill="#4ade80">✓  Guardado correctamente</text>
  <text x="68" y="127" font-family="system-ui" font-size="12" fill="rgba(255,255,255,0.5)">Los cambios han sido aplicados.</text>
  <text x="418" y="107" font-family="system-ui" font-size="11" fill="rgba(255,255,255,0.3)">ahora</text>
  <!-- Error toast -->
  <rect x="40" y="160" width="400" height="62" rx="12" fill="#450a0a" stroke="#dc2626" stroke-width="1.5"/>
  <rect x="40" y="160" width="6" height="62" rx="3,0,0,3" fill="#dc2626"/>
  <text x="68" y="185" font-family="system-ui" font-size="13" font-weight="700" fill="#f87171">✕  Error al procesar</text>
  <text x="68" y="205" font-family="system-ui" font-size="12" fill="rgba(255,255,255,0.5)">Inténtalo de nuevo más tarde.</text>
  <text x="418" y="185" font-family="system-ui" font-size="11" fill="rgba(255,255,255,0.3)">2s</text>
  <!-- Warning toast -->
  <rect x="40" y="238" width="400" height="62" rx="12" fill="#431407" stroke="#d97706" stroke-width="1.5"/>
  <rect x="40" y="238" width="6" height="62" rx="3,0,0,3" fill="#d97706"/>
  <text x="68" y="263" font-family="system-ui" font-size="13" font-weight="700" fill="#fbbf24">⚠  Sesión próxima a expirar</text>
  <text x="68" y="283" font-family="system-ui" font-size="12" fill="rgba(255,255,255,0.5)">Tu sesión expira en 5 minutos.</text>
  <!-- Info toast -->
  <rect x="40" y="315" width="400" height="62" rx="12" fill="#0c1a2e" stroke="#2563eb" stroke-width="1.5"/>
  <rect x="40" y="315" width="6" height="62" rx="3,0,0,3" fill="#2563eb"/>
  <text x="68" y="340" font-family="system-ui" font-size="13" font-weight="700" fill="#60a5fa">ℹ  Nueva versión disponible</text>
  <text x="68" y="360" font-family="system-ui" font-size="12" fill="rgba(255,255,255,0.5)">Actualiza para nuevas mejoras.</text>
  <!-- Progress bar on last toast -->
  <rect x="40" y="371" width="400" height="6" rx="0,0,12,12" fill="rgba(37,99,235,0.2)"/>
  <rect x="40" y="371" width="260" height="6" rx="0,0,12,12" fill="#2563eb"/>
  <!-- Code panel -->
  <rect x="460" y="82" width="330" height="310" rx="12" fill="#111827" stroke="rgba(255,255,255,0.06)" stroke-width="1"/>
  <rect x="460" y="82" width="330" height="30" rx="12" fill="#1e293b"/>
  <rect x="460" y="97" width="330" height="15" fill="#1e293b"/>
  <text x="475" y="102" font-family="monospace" font-size="11" fill="rgba(255,255,255,0.5)">toast.js</text>
  <text x="475" y="128" font-family="monospace" font-size="11" fill="#60a5fa">function</text>
  <text x="521" y="128" font-family="monospace" font-size="11" fill="#fbbf24"> showToast</text>
  <text x="589" y="128" font-family="monospace" font-size="11" fill="white">(msg, type) {</text>
  <text x="475" y="146" font-family="monospace" font-size="11" fill="#60a5fa">  const</text>
  <text x="506" y="146" font-family="monospace" font-size="11" fill="white"> t = document</text>
  <text x="475" y="162" font-family="monospace" font-size="11" fill="rgba(255,255,255,0.5)">    .createElement('div');</text>
  <text x="475" y="180" font-family="monospace" font-size="11" fill="white">  t.className =</text>
  <text x="475" y="196" font-family="monospace" font-size="11" fill="#f59e0b">    `toast toast-${type}`;</text>
  <text x="475" y="214" font-family="monospace" font-size="11" fill="white">  t.textContent = msg;</text>
  <text x="475" y="232" font-family="monospace" font-size="11" fill="white">  document.body</text>
  <text x="475" y="248" font-family="monospace" font-size="11" fill="rgba(255,255,255,0.5)">    .appendChild(t);</text>
  <text x="475" y="266" font-family="monospace" font-size="11" fill="#60a5fa">  setTimeout</text>
  <text x="536" y="266" font-family="monospace" font-size="11" fill="white">(() =&gt;</text>
  <text x="475" y="282" font-family="monospace" font-size="11" fill="rgba(255,255,255,0.5)">    t.remove(), 3000);</text>
  <text x="475" y="298" font-family="monospace" font-size="11" fill="white">}</text>
  <text x="475" y="318" font-family="monospace" font-size="11" fill="#34d399">// Usage:</text>
  <text x="475" y="336" font-family="monospace" font-size="11" fill="rgba(255,255,255,0.6)">showToast('Guardado!', 'success');</text>
  <text x="475" y="354" font-family="monospace" font-size="11" fill="rgba(255,255,255,0.6)">showToast('Error!', 'error');</text>
  <text x="475" y="372" font-family="monospace" font-size="11" fill="rgba(255,255,255,0.6)">showToast('¡Atención!', 'warn');</text>
  <!-- CSS strip -->
  <rect x="40" y="400" width="744" height="170" rx="12" fill="rgba(255,255,255,0.02)" stroke="rgba(255,255,255,0.05)" stroke-width="1"/>
  <text x="60" y="424" font-family="monospace" font-size="12" fill="#a78bfa">.toast { position: fixed; bottom: 1.5rem; right: 1.5rem; min-width: 280px; }</text>
  <text x="60" y="444" font-family="monospace" font-size="12" fill="#a78bfa">       padding: 1rem 1.25rem; border-radius: 12px; border-left: 5px solid;</text>
  <text x="60" y="464" font-family="monospace" font-size="12" fill="#a78bfa">       animation: slideIn 0.3s ease; }</text>
  <text x="60" y="486" font-family="monospace" font-size="12" fill="#60a5fa">.toast-success { background: #052e16; border-color: #16a34a; color: #4ade80; }</text>
  <text x="60" y="506" font-family="monospace" font-size="12" fill="#f87171">.toast-error   { background: #450a0a; border-color: #dc2626; color: #f87171; }</text>
  <text x="60" y="526" font-family="monospace" font-size="12" fill="#fbbf24">.toast-warn    { background: #431407; border-color: #d97706; color: #fbbf24; }</text>
  <text x="60" y="548" font-family="monospace" font-size="12" fill="#a78bfa">@keyframes slideIn { from { opacity:0; transform: translateX(100%); } to { opacity:1; } }</text>
</svg>